<svg id="Layer_1" data-name="Layer 1" xmlns="http://www.w3.org/2000/svg" viewBox="0 0 517.6 103.14"><defs><style>.cls-1{fill:#2b3a42;}</style></defs><title>shoutpoint_logo</title><path class="cls-1" d="M231.06,251.32c-10.74-10.29-21.67-12.59-42.28-12.83h-0.66l-0.64,0c-20.6.23-31.55,2.52-42.28,12.83-13.68,13.1-8.19,40.79-8.19,40.79l5.53,25.64,7.77,7.78h47.29s0.28-10.7-6.43-14c-3.21-1.57-19.73-1.92-30.57-8.87-6.15-3.95-9.12-11.3-9.12-20.57,0-21.49,18.62-27.94,36.65-28.52,18,0.58,36.64,7,36.66,28.52,0,12.65-6.15,21-16.09,25.28-2.06.88-4.52,2.08-5.35,3.19a8.22,8.22,0,0,0-1.3,4.77v10.17h23.9l7.78-7.78,5.53-25.63S244.75,264.42,231.06,251.32Z" transform="translate(-135.91 -238.48)"/><path class="cls-1" d="M282.46,292.71A26.07,26.07,0,0,0,273,291c-2.86,0-6.27,1-6.27,4.52,0,6.5,18.47,2.39,18.47,17.12,0,9.51-8.47,13.31-17.11,13.31A47.52,47.52,0,0,1,256,324.17l0.64-8.71a23.34,23.34,0,0,0,10.46,2.69c2.69,0,7-1,7-5,0-8-18.49-2.53-18.49-17.28,0-8.79,7.7-12.68,16-12.68a48.39,48.39,0,0,1,11.57,1.51Z" transform="translate(-135.91 -238.48)"/><path class="cls-1" d="M292.64,272.15h10.62V289.7h0.15a15.22,15.22,0,0,1,12.85-6.51c9.66,0,13.87,6.82,13.87,16V325H319.5V303.17c0-5-.07-11.72-6.9-11.72-7.68,0-9.35,8.31-9.35,13.55v20H292.64V272.15Z" transform="translate(-135.91 -238.48)"/><path class="cls-1" d="M358.86,283.2c12.13,0,21.39,8.16,21.39,21.65,0,11.72-7.85,21.07-21.39,21.07s-21.31-9.35-21.31-21.07C337.54,291.36,346.81,283.2,358.86,283.2Zm0,34.49c8.16,0,10.31-7.3,10.31-14.12,0-6.26-3.33-12.11-10.31-12.11s-10.23,6-10.23,12.11C348.63,310.31,350.76,317.68,358.86,317.68Z" transform="translate(-135.91 -238.48)"/><path class="cls-1" d="M425.19,325H415.13v-5.54H415a17,17,0,0,1-13.39,6.49c-9.67,0-13.87-6.81-13.87-16V284.16h10.61V306c0,5,.08,11.72,6.89,11.72,7.7,0,9.37-8.33,9.37-13.57v-20h10.61V325Z" transform="translate(-135.91 -238.48)"/><path class="cls-1" d="M438.57,291.92h-7.84v-7.76h7.84V276l10.62-3.41v11.58h9.43v7.76h-9.43v19c0,3.49.94,6.74,5,6.74a9.44,9.44,0,0,0,4.84-1.11l0.31,8.39a27.77,27.77,0,0,1-7.85,1c-8.32,0-12.91-5.14-12.91-13.22V291.92Z" transform="translate(-135.91 -238.48)"/><path class="cls-1" d="M465.4,284.16h10.15v5.78h0.15c2.39-4,6.42-6.74,12.69-6.74,12.53,0,17.11,10,17.11,21.25s-4.58,21.47-17.35,21.47a14,14,0,0,1-12-5.63H476v21.33H465.4V284.16Zm10.71,20.29c0,5.79,2.29,13.24,9.35,13.24s9-7.62,9-13.24c0-5.46-1.91-13-8.8-13S476.1,298.74,476.1,304.44Z" transform="translate(-135.91 -238.48)"/><path class="cls-1" d="M532.41,283.2c12.13,0,21.4,8.16,21.4,21.65,0,11.72-7.84,21.07-21.4,21.07s-21.32-9.35-21.32-21.07C511.09,291.36,520.36,283.2,532.41,283.2Zm0,34.49c8.16,0,10.3-7.3,10.3-14.12,0-6.26-3.34-12.11-10.3-12.11s-10.23,6-10.23,12.11C522.18,310.31,524.32,317.68,532.41,317.68Z" transform="translate(-135.91 -238.48)"/><path class="cls-1" d="M572.24,325H561.61V314.83h10.63V325Zm0-17.59H561.61V283.5h10.63v23.88Z" transform="translate(-135.91 -238.48)"/><path class="cls-1" d="M582.24,284.16h10.05v5.55h0.17c3.32-4.68,7.84-6.51,13.39-6.51,9.66,0,13.87,6.82,13.87,16V325H609.1V303.17c0-5-.08-11.72-6.89-11.72-7.68,0-9.35,8.31-9.35,13.55v20H582.24v-40.8Z" transform="translate(-135.91 -238.48)"/><path class="cls-1" d="M632.75,291.92h-7.86v-7.76h7.86V276l10.62-3.41v11.58h9.42v7.76h-9.42v19c0,3.49,1,6.74,5,6.74a9.41,9.41,0,0,0,4.84-1.11l0.32,8.39a28,28,0,0,1-7.86,1c-8.31,0-12.9-5.14-12.9-13.22V291.92Z" transform="translate(-135.91 -238.48)"/></svg>